# xmcd
#
# Track frame offsets:
#	150
#	13548
#	29796
#	50844
#	66192
#	81765
#	99138
#	114861
#	135984
#	156282
#	174930
#	191028
#	210801
#	230274
#	245772
#	262170
#	281868
#
# Disc length: 4037 seconds
# Revision: 0
# Processed by: cddbd v1.5.2PL0 Copyright (c) Steve Scherf et al.
# Submitted via: dBpowerAMP V12.0
#
DISCID=e80fc311
DTITLE=Bird Thongchai - CD2 - Ruam Pleng Thongchai Sook Jai
DYEAR=2016
DGENRE=Thai
TTITLE0=Som dai
TTITLE1=Som sa hai ked
TTITLE2=Long di ja
TTITLE3=Kord kan
TTITLE4=Kor dee
TTITLE5=Khon ba
TTITLE6=Boomerang
TTITLE7=Sia dai
TTITLE8=Yark pen fan ther
TTITLE9=Por ja mee sith mai
TTITLE10=Khon kang ban
TTITLE11=Ten rum tum krua
TTITLE12=Tid yoo nai hua jai
TTITLE13=Tor wela
TTITLE14=Sabai sabai
TTITLE15=Song khon kum lung dee
TTITLE16=Ballon
EXTD=
EXTT0=
EXTT1=
EXTT2=
EXTT3=
EXTT4=
EXTT5=
EXTT6=
EXTT7=
EXTT8=
EXTT9=
EXTT10=
EXTT11=
EXTT12=
EXTT13=
EXTT14=
EXTT15=
EXTT16=
PLAYORDER=
